<svg xmlns="http://www.w3.org/2000/svg" viewBox="0 0 24 24" width="24" height="24">
  <path d="M12 2C7.64 2 3.89 3.95 1.68 7H0l1.97 2.17A6.5 6.5 0 0 0 5.5 19a6.47 6.47 0 0 0 4.75-2.07L12 19l1.75-2.07A6.47 6.47 0 0 0 18.5 19a6.5 6.5 0 0 0 3.53-9.83L24 7h-1.68C20.11 3.95 16.36 2 12 2zm0 2.5c2.59 0 4.97.82 6.93 2.21A6.47 6.47 0 0 0 12 9.55a6.47 6.47 0 0 0-6.93-2.84A10.45 10.45 0 0 1 12 4.5zM5.5 9a4.5 4.5 0 1 1 0 9 4.5 4.5 0 0 1 0-9zm13 0a4.5 4.5 0 1 1 0 9 4.5 4.5 0 0 1 0-9zM5.5 11a2.5 2.5 0 1 0 0 5 2.5 2.5 0 0 0 0-5zm13 0a2.5 2.5 0 1 0 0 5 2.5 2.5 0 0 0 0-5z" fill="#34E0A1"/>
</svg>
